<svg height="512pt" viewBox="0 0 512 512" width="512pt" xmlns="http://www.w3.org/2000/svg"><path d="m412.902344 206.453125c0 55.445313-21.859375 105.789063-57.429688 142.878906-37.574218 39.179688-90.449218 52.335938-149.023437 52.335938-114.019531 0-196.785157-81.195313-196.785157-195.214844 0-69.664063 24.835938-131.265625 77.683594-168.652344 33.652344-23.8125 74.746094-37.800781 119.105469-37.800781 114.019531 0 206.449219 92.433594 206.449219 206.453125zm0 0" fill="#ffc269"/><path d="m225.730469 411.964844c5.566406-.515625 11.058593-1.265625 16.484375-2.214844.4375-.078125.875-.160156 1.3125-.242188 43.609375-7.925781 82.492187-29.472656 111.941406-60.179687-16.339844-11.878906-36.429688-19.003906-58.179688-19.003906-24.066406 0-46.074218 8.617187-63.207031 22.90625-6.054687 5.046875-13.996093 7.140625-21.703125 5.484375-93.066406-20.023438-162.832031-102.757813-162.832031-201.8125 0-44.355469 14-85.445313 37.804687-119.097656-52.847656 37.386718-87.351562 98.984374-87.351562 168.648437 0 111.757813 88.816406 202.710937 199.707031 206.28125 2.242188.070313 4.480469.167969 6.746094.167969 5.71875 0 11.363281-.300782 16.960937-.757813.773438-.0625 1.546876-.109375 2.316407-.179687zm0 0" fill="#ffa95f"/><path d="m379.871094 429.417969c0 14.3125-3.640625 27.773437-10.046875 39.507812-14.007813 25.664063-41.238281 36.574219-72.535157 36.574219-45.605468 0-75.289062-30.472656-75.289062-76.082031 0-31.300781 10.128906-58.539063 35.800781-72.542969 11.730469-6.398438 25.183594-10.035156 39.488281-10.035156 45.609376 0 82.582032 36.972656 82.582032 82.578125zm0 0" fill="#c3ddff"/><path d="m330.324219 478.96875c-45.609375 0-82.582031-36.972656-82.582031-82.582031 0-14.308594 3.652343-27.78125 10.054687-39.515625-4.53125 2.472656-8.804687 5.359375-12.769531 8.605468-2.03125 1.664063-.476563 8.238282-2.339844 10.085938-2.050781 2.035156-7.503906-.644531-9.335938 1.59375-11.648437 14.238281-18.640624 32.4375-18.640624 52.261719 0 45.609375 36.972656 82.582031 82.578124 82.582031 31.300782 0 58.53125-17.40625 72.535157-43.074219-11.734375 6.402344-25.191407 10.042969-39.5 10.042969zm0 0" fill="#a4ccff"/><path d="m512 342.710938c0 6.003906-1.421875 11.671874-3.949219 16.691406-6.117187 12.140625-18.28125 17.847656-32.800781 17.847656-20.523438 0-34.5-14.015625-34.5-34.539062 0-14.523438 5.257812-27.097657 17.398438-33.210938 5.015624-2.527344 10.6875-3.953125 16.691406-3.953125 20.523437 0 37.160156 16.640625 37.160156 37.164063zm0 0" fill="#ff9a9f"/><path d="m107.355469 206.453125c0 9.121094-7.394531 16.515625-16.515625 16.515625s-16.515625-7.394531-16.515625-16.515625 7.394531-16.515625 16.515625-16.515625 16.515625 7.394531 16.515625 16.515625zm0 0" fill="#ffe07d"/><path d="m206.449219 322.066406c0 9.121094-7.394531 16.515625-16.515625 16.515625s-16.515625-7.394531-16.515625-16.515625 7.394531-16.515625 16.515625-16.515625 16.515625 7.394531 16.515625 16.515625zm0 0" fill="#ffe07d"/><path d="m180.90625 128.347656c-8.910156-4.113281-16.105469-11.3125-20.222656-20.222656-1.488282-3.222656-6.074219-3.222656-7.5625 0-4.113282 8.910156-11.308594 16.109375-20.222656 20.222656-3.222657 1.488282-3.222657 6.074219 0 7.5625 8.914062 4.113282 16.109374 11.3125 20.222656 20.222656 1.488281 3.222657 6.074218 3.222657 7.5625 0 4.117187-8.914062 11.3125-16.109374 20.222656-20.222656 3.226562-1.488281 3.226562-6.074218 0-7.5625zm0 0" fill="#ffe07d"/><path d="m323.433594 268.84375c-6.085938-3.144531-11.070313-8.125-14.214844-14.210938-1.519531-2.941406-5.820312-2.941406-7.339844 0-3.148437 6.085938-8.128906 11.066407-14.214844 14.210938-2.9375 1.519531-2.9375 5.820312 0 7.34375 6.085938 3.144531 11.066407 8.125 14.214844 14.210938 1.519532 2.941406 5.820313 2.941406 7.339844 0 3.144531-6.085938 8.128906-11.066407 14.214844-14.210938 2.9375-1.519531 2.9375-5.824219 0-7.34375zm0 0" fill="#ffe07d"/><g fill="#ffa95f"><path d="m198.195312 231.226562h-8.257812v-8.257812c0-4.566406-3.695312-8.257812-8.257812-8.257812-4.566407 0-8.257813 3.691406-8.257813 8.257812v8.257812h-8.261719c-4.5625 0-8.257812 3.695313-8.257812 8.257813s3.695312 8.257813 8.257812 8.257813h8.261719v8.257812c0 4.566406 3.691406 8.257812 8.257813 8.257812 4.5625 0 8.257812-3.695312 8.257812-8.257812v-8.257812h8.257812c4.5625 0 8.257813-3.695313 8.257813-8.257813s-3.695313-8.257813-8.257813-8.257813zm0 0"/><path d="m303.128906 101.515625c-3.226562-3.226563-8.453125-3.226563-11.675781 0l-6.550781 6.546875-6.546875-6.546875c-3.226563-3.226563-8.453125-3.226563-11.675781 0-3.226563 3.226563-3.226563 8.453125 0 11.675781l6.546874 6.550782-6.546874 6.546874c-3.226563 3.226563-3.226563 8.453126 0 11.675782 1.613281 1.613281 3.726562 2.421875 5.839843 2.421875s4.222657-.808594 5.835938-2.421875l6.550781-6.546875 6.546875 6.546875c1.613281 1.613281 3.726563 2.421875 5.839844 2.421875s4.226562-.808594 5.839843-2.421875c3.222657-3.226563 3.222657-8.449219 0-11.675782l-6.550781-6.546874 6.550781-6.550782c3.222657-3.222656 3.222657-8.449218-.003906-11.675781zm0 0"/><path d="m226.660156 50.417969-16.515625-8.257813c-4.074219-2.03125-9.039062-.386718-11.082031 3.695313-2.039062 4.082031-.386719 9.039062 3.695312 11.082031l16.515626 8.257812c1.1875.589844 2.445312.871094 3.6875.871094 3.03125 0 5.941406-1.671875 7.394531-4.566406 2.039062-4.082031.386719-9.039062-3.695313-11.082031zm0 0"/><path d="m367.046875 182.546875c-4.078125-2.023437-9.03125-.386719-11.078125 3.695313l-8.257812 16.515624c-2.042969 4.082032-.390626 9.039063 3.691406 11.082032 1.1875.589844 2.445312.871094 3.6875.871094 3.03125 0 5.941406-1.671876 7.394531-4.566407l8.257813-16.515625c2.039062-4.082031.386718-9.039062-3.695313-11.082031zm0 0"/></g><path d="m81.710938 293.597656c-2.039063-4.082031-7-5.71875-11.082032-3.695312-4.082031 2.039062-5.734375 7-3.695312 11.082031l8.257812 16.515625c1.453125 2.894531 4.363282 4.566406 7.398438 4.566406 1.238281 0 2.5-.285156 3.683594-.871094 4.082031-2.042968 5.734374-7 3.695312-11.082031zm0 0" fill="#ff8b5a"/><path d="m80.160156 137.96875c3.226563-3.226562 3.226563-8.453125 0-11.679688-3.226562-3.222656-8.449218-3.222656-11.675781 0l-8.257813 8.261719c-3.226562 3.222657-3.226562 8.449219 0 11.675781 1.613282 1.613282 3.726563 2.417969 5.839844 2.417969 2.113282 0 4.222656-.804687 5.835938-2.417969zm0 0" fill="#ffa95f"/><path d="m330.324219 470.710938c-2.113281 0-4.226563-.808594-5.839844-2.421876l-8.257813-8.257812c-3.226562-3.222656-3.226562-8.449219 0-11.675781 3.226563-3.226563 8.453126-3.226563 11.675782 0l8.257812 8.257812c3.226563 3.226563 3.226563 8.453125 0 11.675781-1.613281 1.613282-3.726562 2.421876-5.835937 2.421876zm0 0" fill="#d6bdef"/><path d="m303.128906 473.128906-41.289062-41.289062c-1.957032-1.957032-4.652344-2.726563-7.1875-2.308594l-2.152344 10.09375 40.582031 42.792969 11.347657-7.601563c-.351563-.601562-.785157-1.171875-1.300782-1.6875zm0 0" fill="#d6bdef"/><path d="m322.066406 412.902344c-2.113281 0-4.226562-.804688-5.839844-2.417969l-24.773437-24.773437c-3.226563-3.226563-3.226563-8.453126 0-11.679688 3.226563-3.222656 8.449219-3.222656 11.675781 0l24.773438 24.777344c3.226562 3.222656 3.226562 8.449218 0 11.675781-1.613282 1.613281-3.726563 2.417969-5.835938 2.417969zm0 0" fill="#d6bdef"/><path d="m251.445312 371.894531c-8.132812 4.980469-3.574218 19.785157-3.574218 19.785157l43.578125 43.578124c1.613281 1.613282 3.726562 2.417969 5.839843 2.417969 2.113282 0 4.226563-.804687 5.839844-2.417969 3.226563-3.226562 3.226563-8.453124 0-11.679687zm0 0" fill="#d6bdef"/><path d="m247.871094 391.679688c.378906-6.871094 1.613281-13.460938 3.574218-19.785157l-6.425781-6.421875c-4.273437 3.496094-8.171875 7.410156-11.667969 11.683594zm0 0" fill="#c3aff0"/><path d="m491.355469 363.355469c-20.523438 0-37.160157-16.636719-37.160157-37.160157 0-5.992187 1.4375-11.679687 3.953126-16.691406-12.15625 6.105469-20.46875 18.671875-20.46875 33.207032 0 20.523437 16.636718 37.160156 37.160156 37.160156 14.53125 0 27.097656-8.3125 33.207031-20.46875-5.011719 2.515625-10.703125 3.953125-16.691406 3.953125zm0 0" fill="#ff8086"/><path d="m303.128906 484.804688c2.773438-2.773438 3.300782-6.804688 1.304688-9.992188-22.113282-7.394531-40.453125-24.132812-49.78125-45.285156-1.679688.257812-3.195313 1.015625-4.492188 2.3125-3.226562 3.222656-3.226562 8.449218 0 11.675781l41.289063 41.289063c1.613281 1.613281 3.726562 2.417968 5.839843 2.417968 2.113282.003906 4.226563-.804687 5.839844-2.417968zm0 0" fill="#c3aff0"/></svg>